HIERARCHY
ROOT hip
{
  OFFSET 0 0 0
  CHANNELS 6 Xposition Yposition Zposition Zrotation Yrotation Xrotation
  JOINT abdomen
  {
    OFFSET 0 20.6881 -0.73152
    CHANNELS 3 Zrotation Xrotation Yrotation
    JOINT chest
    {
      OFFSET 0 11.7043 -0.48768
      CHANNELS 3 Zrotation Xrotation Yrotation
      JOINT neck
      {
        OFFSET 0 22.1894 -2.19456
        CHANNELS 3 Zrotation Xrotation Yrotation
        JOINT head
        {
          OFFSET -0.24384 7.07133 1.2192
          CHANNELS 3 Zrotation Xrotation Yrotation
          JOINT leftEye
          {
            OFFSET 4.14528 8.04674 8.04672
            CHANNELS 3 Zrotation Xrotation Yrotation
            End Site
            {
              OFFSET 1 0 0
            }
          }
          JOINT rightEye
          {
            OFFSET -3.6576 8.04674 8.04672
            CHANNELS 3 Zrotation Xrotation Yrotation
            End Site
            {
              OFFSET 1 0 0
            }
          }
        }
      }
      JOINT rCollar
      {
        OFFSET -2.68224 19.2634 -4.8768
        CHANNELS 3 Zrotation Xrotation Yrotation
        JOINT rShldr
        {
          OFFSET -8.77824 -1.95073 1.46304
          CHANNELS 3 Zrotation Xrotation Yrotation
          JOINT rForeArm
          {
            OFFSET -28.1742 -1.7115 0.48768
            CHANNELS 3 Zrotation Xrotation Yrotation
            JOINT rHand
            {
              OFFSET -22.5879 0.773209 7.07136
              CHANNELS 3 Zrotation Xrotation Yrotation
              JOINT rThumb1
              {
                OFFSET -1.2192 -0.487915 3.41376
                CHANNELS 3 Zrotation Xrotation Yrotation
                JOINT rThumb2
                {
                  OFFSET -3.37035 -0.52449 3.41376
                  CHANNELS 3 Zrotation Xrotation Yrotation
                  End Site
                  {
                    OFFSET -1.78271 -1.18214 1.43049
                  }
                }
              }
              JOINT rIndex1
              {
                OFFSET -7.75947 0.938293 5.60832
                CHANNELS 3 Zrotation Xrotation Yrotation
                JOINT rIndex2
                {
                  OFFSET -2.54057 -0.884171 1.56538
                  CHANNELS 3 Zrotation Xrotation Yrotation
                  End Site
                  {
                    OFFSET -1.62519 -0.234802 1.16502
                  }
                }
              }
              JOINT rMid1
              {
                OFFSET -8.24714 1.18213 3.41376
                CHANNELS 3 Zrotation Xrotation Yrotation
                JOINT rMid2
                {
                  OFFSET -3.10165 -0.590103 1.0647
                  CHANNELS 3 Zrotation Xrotation Yrotation
                  End Site
                  {
                    OFFSET -2.48547 -0.328903 0.83742
                  }
                }
              }
              JOINT rRing1
              {
                OFFSET -8.82822 0.546677 1.51678
                CHANNELS 3 Zrotation Xrotation Yrotation
                JOINT rRing2
                {
                  OFFSET -2.60934 -0.819778 -0.0198488
                  CHANNELS 3 Zrotation Xrotation Yrotation
                  End Site
                  {
                    OFFSET -2.33842 -0.294052 0.168128
                  }
                }
              }
              JOINT rPinky1
              {
                OFFSET -8.27202 -0.0477905 -0.4584
                CHANNELS 3 Zrotation Xrotation Yrotation
                JOINT rPinky2
                {
                  OFFSET -1.82734 -0.647385 -0.700984
                  CHANNELS 3 Zrotation Xrotation Yrotation
                  End Site
                  {
                    OFFSET -1.69225 -0.51767 -0.607171
                  }
                }
              }
            }
          }
        }
      }
      JOINT lCollar
      {
        OFFSET 2.68224 19.2634 -4.8768
        CHANNELS 3 Zrotation Xrotation Yrotation
        JOINT lShldr
        {
          OFFSET 8.77824 -1.95073 1.46304
          CHANNELS 3 Zrotation Xrotation Yrotation
          JOINT lForeArm
          {
            OFFSET 28.1742 -1.7115 0.48768
            CHANNELS 3 Zrotation Xrotation Yrotation
            JOINT lHand
            {
              OFFSET 22.5879 0.773209 7.07136
              CHANNELS 3 Zrotation Xrotation Yrotation
              JOINT lThumb1
              {
                OFFSET 1.2192 -0.487915 3.41376
                CHANNELS 3 Zrotation Xrotation Yrotation
                JOINT lThumb2
                {
                  OFFSET 3.37035 -0.52449 3.41376
                  CHANNELS 3 Zrotation Xrotation Yrotation
                  End Site
                  {
                    OFFSET 1.78271 -1.18214 1.43049
                  }
                }
              }
              JOINT lIndex1
              {
                OFFSET 7.75947 0.938293 5.60832
                CHANNELS 3 Zrotation Xrotation Yrotation
                JOINT lIndex2
                {
                  OFFSET 2.54057 -0.884171 1.56538
                  CHANNELS 3 Zrotation Xrotation Yrotation
                  End Site
                  {
                    OFFSET 1.62519 -0.234802 1.16502
                  }
                }
              }
              JOINT lMid1
              {
                OFFSET 8.24714 1.18213 3.41376
                CHANNELS 3 Zrotation Xrotation Yrotation
                JOINT lMid2
                {
                  OFFSET 3.10165 -0.590103 1.0647
                  CHANNELS 3 Zrotation Xrotation Yrotation
                  End Site
                  {
                    OFFSET 2.48547 -0.328903 0.83742
                  }
                }
              }
              JOINT lRing1
              {
                OFFSET 8.82822 0.546677 1.51678
                CHANNELS 3 Zrotation Xrotation Yrotation
                JOINT lRing2
                {
                  OFFSET 2.60934 -0.819778 -0.0198488
                  CHANNELS 3 Zrotation Xrotation Yrotation
                  End Site
                  {
                    OFFSET 2.33842 -0.294052 0.168128
                  }
                }
              }
              JOINT lPinky1
              {
                OFFSET 8.27202 -0.0477905 -0.4584
                CHANNELS 3 Zrotation Xrotation Yrotation
                JOINT lPinky2
                {
                  OFFSET 1.82734 -0.647385 -0.700984
                  CHANNELS 3 Zrotation Xrotation Yrotation
                  End Site
                  {
                    OFFSET 1.69225 -0.51767 -0.607171
                  }
                }
              }
            }
          }
        }
      }
    }
  }
  JOINT rButtock
  {
    OFFSET -8.77824 4.35084 1.2192
    CHANNELS 3 Zrotation Xrotation Yrotation
    JOINT rThigh
    {
      OFFSET 0 -1.70687 -2.19456
      CHANNELS 3 Zrotation Xrotation Yrotation
      JOINT rShin
      {
        OFFSET 0 -36.8199 0.73152
        CHANNELS 3 Zrotation Xrotation Yrotation
        JOINT rFoot
        {
          OFFSET 0.73152 -45.1104 -5.12064
          CHANNELS 3 Zrotation Xrotation Yrotation
          End Site
          {
            OFFSET -1.1221 -3.69964 12.103
          }
        }
      }
    }
  }
  JOINT lButtock
  {
    OFFSET 8.77824 4.35084 1.2192
    CHANNELS 3 Zrotation Xrotation Yrotation
    JOINT lThigh
    {
      OFFSET 0 -1.70687 -2.19456
      CHANNELS 3 Zrotation Xrotation Yrotation
      JOINT lShin
      {
        OFFSET 0 -36.8199 0.73152
        CHANNELS 3 Zrotation Xrotation Yrotation
        JOINT lFoot
        {
          OFFSET -0.73152 -45.1104 -5.12064
          CHANNELS 3 Zrotation Xrotation Yrotation
          End Site
          {
            OFFSET 1.1221 -3.69964 12.103
          }
        }
      }
    }
  }
}
MOTION
Frames:	6
Frame Time:	0.00833333
-6.25778 82.8755 124.811 177.843 -4.3106 -153.851 -7.67814 -28.8803 0.571774 4.50333 14.2556 -0.18121 -1.01028 12.6525 -0.873411 3.83066 1.01512 -5.47749 -0.0 0.0 0.0 -0.0 0.0 0.0 -1.03412e-13 1.14502e-13 3.27995e-15 84.3784 -2.38339 -2.71106 -8.69243 -3.3838 15.3712 -0.217956 13.1814 1.88625 2.34823e-09 4.27387e-10 -1.89038e-09 4.03825e-09 7.40544e-10 -3.29488e-09 2.34823e-09 4.27386e-10 -1.89039e-09 7.73091 5.47488 0.417314 2.34823e-09 4.27389e-10 -1.89038e-09 2.90554 0.965183 0.102902 2.34823e-09 4.27387e-10 -1.89037e-09 10.2786 0.731801 0.0259123 2.34822e-09 4.27389e-10 -1.89036e-09 2.22167 -0.733487 -0.20892 -1.03331e-13 1.14499e-13 3.08116e-15 -76.8387 26.5253 -5.71285 8.70597 -3.39129 -15.3962 0.0374454 5.51473 -0.777471 1.25719e-10 1.224e-09 3.11784e-09 2.32472e-10 2.12077e-09 5.38993e-09 1.25716e-10 1.224e-09 3.11785e-09 -7.73091 5.47488 -0.417314 1.25723e-10 1.224e-09 3.11783e-09 -2.90554 0.965183 -0.102902 1.25713e-10 1.224e-09 3.11784e-09 -10.2786 0.731801 -0.0259123 1.2572e-10 1.22401e-09 3.11783e-09 -2.22167 -0.733487 0.20892 -2.03217e-16 0.0 -3.88251e-19 2.43791 -30.8077 3.94053 -0.0166226 8.71961 0.164856 -1.11283 -12.9656 -1.25458 2.03217e-16 0.0 3.88251e-19 -5.90826 -27.2285 -7.37148 0.0132442 5.44623 -0.0086373 0.385227 -1.52812 -4.29047
-6.26523 82.8694 124.873 177.883 -4.0426 -153.778 -7.66815 -28.8427 0.521147 4.4917 14.267 -0.194979 -1.0046 12.7008 -0.959197 3.79365 1.30589 -5.75802 -0.0 0.0 0.0 -0.0 0.0 0.0 -8.73596e-14 -9.59992e-14 -5.88585e-14 84.3785 -2.26498 -2.69575 -8.72922 -3.40401 15.4392 -0.213294 13.0332 1.86437 1.87351e-09 -4.52018e-10 7.41632e-11 3.23873e-09 -7.82398e-10 1.03674e-10 1.87352e-09 -4.52019e-10 7.41524e-11 7.73091 5.47488 0.417314 1.87351e-09 -4.52017e-10 7.41676e-11 2.90554 0.965183 0.102902 1.87351e-09 -4.52018e-10 7.41676e-11 10.2786 0.731801 0.0259123 1.8735e-09 -4.52016e-10 7.41782e-11 2.22167 -0.733487 -0.20892 -8.73053e-14 -9.60015e-14 -5.90604e-14 -76.8572 26.5549 -5.62426 8.73216 -3.4058 -15.4444 0.0365238 5.44817 -0.768027 1.38862e-09 9.82814e-10 1.23036e-09 2.40457e-09 1.70128e-09 2.12214e-09 1.38862e-09 9.82817e-10 1.23037e-09 -7.73091 5.47488 -0.417314 1.38863e-09 9.82818e-10 1.23035e-09 -2.90554 0.965183 -0.102902 1.38862e-09 9.82818e-10 1.23036e-09 -10.2786 0.731801 -0.0259123 1.38863e-09 9.82821e-10 1.23035e-09 -2.22167 -0.733487 0.20892 -2.03217e-16 0.0 -3.88251e-19 2.50004 -30.9009 4.12249 -0.014837 8.70122 0.163783 -1.10499 -12.9038 -1.22407 2.03217e-16 0.0 3.88251e-19 -5.8936 -27.3007 -7.35966 0.0139637 5.4232 -0.00837328 0.403542 -1.54156 -4.08285
-6.27799 82.8675 124.927 177.929 -3.8034 -153.732 -7.64862 -28.7737 0.509242 4.47279 14.2006 -0.197042 -0.973061 12.7772 -1.04481 3.7789 1.5772 -6.0433 -0.0 0.0 0.0 -0.0 0.0 0.0 -5.40436e-14 -4.06017e-13 -1.58714e-13 84.387 -2.16249 -2.73421 -8.75219 -3.4167 15.4815 -0.212569 13.0103 1.86098 1.07452e-09 -1.87723e-09 3.16816e-09 1.89062e-09 -3.25061e-09 5.4569e-09 1.07452e-09 -1.87723e-09 3.16815e-09 7.73091 5.47488 0.417314 1.07452e-09 -1.87723e-09 3.16816e-09 2.90554 0.965183 0.102902 1.07453e-09 -1.87723e-09 3.16816e-09 10.2786 0.731801 0.0259123 1.07451e-09 -1.87722e-09 3.16817e-09 2.22167 -0.733487 -0.20892 -5.40522e-14 -4.06019e-13 -1.58919e-13 -76.8719 26.658 -5.47808 8.7693 -3.42638 -15.5129 0.0351275 5.34398 -0.753252 3.31334e-09 5.704e-10 -1.8052e-09 5.71424e-09 9.8411e-10 -3.13321e-09 3.31334e-09 5.70404e-10 -1.80519e-09 -7.73091 5.47488 -0.417314 3.31334e-09 5.70405e-10 -1.80521e-09 -2.90554 0.965183 -0.102902 3.31333e-09 5.70405e-10 -1.8052e-09 -10.2786 0.731801 -0.0259123 3.31334e-09 5.70409e-10 -1.8052e-09 -2.22167 -0.733487 0.20892 -2.03217e-16 0.0 -3.88251e-19 2.59958 -30.9941 4.39402 -0.0111979 8.69975 0.163138 -1.1112 -12.8476 -1.24757 2.03217e-16 0.0 3.88251e-19 -5.85974 -27.3777 -7.33623 0.0145513 5.4053 -0.00827166 0.421882 -1.569 -3.86866
-6.27679 82.8668 124.97 178.004 -3.6605 -153.706 -7.62275 -28.6895 0.504907 4.44607 14.1094 -0.196126 -0.929699 12.8682 -1.12757 3.78105 1.81817 -6.31999 -0.0 0.0 0.0 -0.0 0.0 0.0 -1.67167e-14 -6.86366e-13 -2.54689e-13 84.4003 -2.04702 -2.80097 -8.77216 -3.42781 15.5183 -0.2123 13.0067 1.86041 2.51009e-10 -3.22704e-09 6.01589e-09 4.97492e-10 -5.58821e-09 1.03851e-08 2.51011e-10 -3.22704e-09 6.01588e-09 7.73091 5.47488 0.417314 2.51008e-10 -3.22704e-09 6.01589e-09 2.90554 0.965183 0.102902 2.51018e-10 -3.22704e-09 6.01589e-09 10.2786 0.731801 0.0259123 2.51003e-10 -3.22704e-09 6.01589e-09 2.22167 -0.733487 -0.20892 -1.67947e-14 -6.86367e-13 -2.54906e-13 -76.881 26.7414 -5.32593 8.80387 -3.44554 -15.5767 0.0339113 5.2498 -0.739902 5.03855e-09 1.58905e-10 -4.68704e-09 8.68011e-09 2.68723e-10 -8.12203e-09 5.03855e-09 1.5891e-10 -4.68703e-09 -7.73091 5.47488 -0.417314 5.03855e-09 1.58911e-10 -4.68704e-09 -2.90554 0.965183 -0.102902 5.03854e-09 1.58911e-10 -4.68704e-09 -10.2786 0.731801 -0.0259123 5.03856e-09 1.58915e-10 -4.68704e-09 -2.22167 -0.733487 0.20892 -2.03217e-16 0.0 -3.88251e-19 2.69441 -31.076 4.63684 -0.0072208 8.69595 0.162401 -1.11244 -12.7943 -1.2521 2.03217e-16 0.0 3.88251e-19 -5.82286 -27.4467 -7.31566 0.0151762 5.38646 -0.00815388 0.438877 -1.59694 -3.66546
-6.2847 82.8716 124.996 178.015 -3.5413 -153.713 -7.59359 -28.6061 0.47706 4.41098 14.0465 -0.20095 -0.888655 12.9603 -1.2048 3.7943 2.018 -6.57468 -0.0 0.0 0.0 -0.0 0.0 0.0 1.13681e-14 -8.07861e-13 -3.05184e-13 84.4148 -1.88972 -2.87055 -8.79991 -3.44329 15.5694 -0.209099 12.9166 1.84703 -2.97266e-10 -3.88026e-09 7.24164e-09 -4.37069e-10 -6.71934e-09 1.25086e-08 -2.97264e-10 -3.88026e-09 7.24163e-09 7.73091 5.47488 0.417314 -2.97267e-10 -3.88026e-09 7.24164e-09 2.90554 0.965183 0.102902 -2.97256e-10 -3.88026e-09 7.24164e-09 10.2786 0.731801 0.0259123 -2.97271e-10 -3.88025e-09 7.24164e-09 2.22167 -0.733487 -0.20892 1.12444e-14 -8.07861e-13 -3.05433e-13 -76.8812 26.7125 -5.21996 8.82239 -3.45581 -15.6109 0.0334489 5.21322 -0.734719 5.70295e-09 -7.95234e-11 -6.11336e-09 9.8208e-09 -1.45437e-10 -1.05903e-08 5.70295e-09 -7.9519e-11 -6.11335e-09 -7.73091 5.47488 -0.417314 5.70295e-09 -7.95173e-11 -6.11336e-09 -2.90554 0.965183 -0.102902 5.70294e-09 -7.95174e-11 -6.11336e-09 -10.2786 0.731801 -0.0259123 5.70296e-09 -7.95131e-11 -6.11336e-09 -2.22167 -0.733487 0.20892 -2.03217e-16 0.0 -3.88251e-19 2.74139 -31.136 4.73216 -0.00442284 8.67058 0.161053 -1.08999 -12.7413 -1.16478 2.03217e-16 0.0 3.88251e-19 -5.79922 -27.4944 -7.31247 0.016008 5.3606 -0.00784137 0.452937 -1.6119 -3.49082
-6.29803 82.8802 125.012 178.008 -3.4002 -153.768 -7.55314 -28.5332 0.422912 4.35562 14.0249 -0.211664 -0.853774 13.0703 -1.27443 3.82932 2.13486 -6.79553 -0.0 0.0 0.0 -0.0 0.0 0.0 2.74379e-14 -6.76739e-13 -2.85702e-13 84.4385 -1.63771 -2.94735 -8.8449 -3.46843 15.6523 -0.200884 12.6729 1.81093 -4.37908e-10 -3.43086e-09 5.8518e-09 -6.9465e-10 -5.94074e-09 1.01094e-08 -4.37906e-10 -3.43086e-09 5.85179e-09 7.73091 5.47488 0.417314 -4.37909e-10 -3.43086e-09 5.8518e-09 2.90554 0.965183 0.102902 -4.379e-10 -3.43086e-09 5.85179e-09 10.2786 0.731801 0.0259123 -4.37913e-10 -3.43085e-09 5.8518e-09 2.22167 -0.733487 -0.20892 2.73015e-14 -6.76737e-13 -2.86024e-13 -76.8659 26.5183 -5.17319 8.81877 -3.45379 -15.6043 0.0338601 5.24312 -0.73896 4.64673e-09 -4.45343e-11 -5.23049e-09 8.00086e-09 -8.36381e-11 -9.05935e-09 4.64673e-09 -4.4532e-11 -5.23047e-09 -7.73091 5.47488 -0.417314 4.64673e-09 -4.45307e-11 -5.23049e-09 -2.90554 0.965183 -0.102902 4.64672e-09 -4.45308e-11 -5.23048e-09 -10.2786 0.731801 -0.0259123 4.64674e-09 -4.45266e-11 -5.23049e-09 -2.22167 -0.733487 0.20892 -2.03217e-16 0.0 -3.88251e-19 2.70568 -31.1776 4.56985 -0.00311782 8.61393 0.158507 -1.02059 -12.6866 -0.893378 2.03217e-16 0.0 3.88251e-19 -5.79901 -27.5186 -7.3415 0.0172337 5.32211 -0.00721717 0.463344 -1.61135 -3.33992
